<?xml version="1.0" encoding="UTF-8" standalone="no"?>
<!-- Created with Inkscape (http://www.inkscape.org/) -->

<svg
   xmlns:dc="http://purl.org/dc/elements/1.1/"
   xmlns:cc="http://creativecommons.org/ns#"
   xmlns:rdf="http://www.w3.org/1999/02/22-rdf-syntax-ns#"
   xmlns:svg="http://www.w3.org/2000/svg"
   xmlns="http://www.w3.org/2000/svg"
   xmlns:sodipodi="http://sodipodi.sourceforge.net/DTD/sodipodi-0.dtd"
   xmlns:inkscape="http://www.inkscape.org/namespaces/inkscape"
   width="20cm"
   height="25cm"
   viewBox="0 0 100 100"
   id="svg21612"
   version="1.1"
   inkscape:version="0.91 r13725"
   sodipodi:docname="inge.svg">
   <rect width="50cm" height="50cm" transform="translate(0, -100)" fill="#b9d9eb" />
   <defs
      id="defs21614">
      <clipPath
         id="clipPath17213"
         clipPathUnits="userSpaceOnUse">
         <path
            inkscape:connector-curvature="0"
            id="path17215"
            d="m 287.482,220.8 74.011,0 0,78.943 -74.011,0 0,-78.943 z" />
      </clipPath>
   </defs>
   <sodipodi:namedview
      id="base"
      pagecolor="#ffffff"
      bordercolor="#666666"
      borderopacity="1.0"
      inkscape:pageopacity="0.0"
      inkscape:pageshadow="2"
      inkscape:zoom="2.8284271"
      inkscape:cx="88.314636"
      inkscape:cy="67.644679"
      inkscape:document-units="px"
      inkscape:current-layer="g17209"
      showgrid="false"
      fit-margin-top="0"
      fit-margin-left="0"
      fit-margin-right="0"
      fit-margin-bottom="0"
      inkscape:window-width="1858"
      inkscape:window-height="1057"
      inkscape:window-x="-8"
      inkscape:window-y="-8"
      inkscape:window-maximized="1" />
   <metadata
      id="metadata21617">
      <rdf:RDF>
         <cc:Work
            rdf:about="">
            <dc:format>image/svg+xml</dc:format>
            <dc:type
               rdf:resource="http://purl.org/dc/dcmitype/StillImage" />
            <dc:title></dc:title>
         </cc:Work>
      </rdf:RDF>
   </metadata>
   <g
      inkscape:label="Calque 1"
      inkscape:groupmode="layer"
      id="layer1"
      transform="translate(-207,-365) scale(0.6)">
      <g
         transform="matrix(1.25,0,0,-1.25,23.637328,1037.7014)"
         id="g17209">
         <g
            clip-path="url(#clipPath17213)"
            id="g17211">
            <g
               transform="translate(291.8708,286.8776)"
               id="g17217"
               style="fill:#022169;fill-opacity:1">
               <path
                  inkscape:connector-curvature="0"
                  id="path17219"
                  style="fill:#022169;fill-opacity:1;fill-rule:evenodd;stroke:none"
                  d="m 0,0 c 0,0 16.195,10.292 17.859,11.049 1.666,0.756 3.482,1.362 5.449,-0.606 1.968,-1.968 5.903,-8.173 5.903,-8.173 0,0 1.211,-2.876 -1.06,-4.843 C 25.881,-4.541 9.535,-14.53 9.535,-14.53 L -4.389,-13.168 0,0 Z" />
            </g>
            <g
               transform="translate(295.3521,294.7477)"
               id="g17221"
               style="fill:#022169;fill-opacity:1">
               <path
                  inkscape:connector-curvature="0"
                  id="path17223"
                  style="fill:#022169;fill-opacity:1;fill-rule:evenodd;stroke:none"
                  d="M 0,0 7.416,4.995 8.929,2.875 1.513,-2.119 0,0 Z" />
            </g>
            <g
               transform="translate(307.7628,273.2559)"
               id="g17225"
               style="fill:#022169;fill-opacity:1">
               <path
                  inkscape:connector-curvature="0"
                  id="path17227"
                  style="fill:#022169;fill-opacity:1;fill-rule:evenodd;stroke:none"
                  d="m 0,0 7.114,4.692 c 0,0 0.908,-3.179 4.843,-10.595 0,0 -9.99,1.665 -11.957,5.903" />
            </g>
            <g
               transform="translate(330.769,267.3531)"
               id="g17229"
               style="fill:#022169;fill-opacity:1">
               <path
                  inkscape:connector-curvature="0"
                  id="path17231"
                  style="fill:#022169;fill-opacity:1;fill-rule:evenodd;stroke:none"
                  d="M 0,0 C 0,0 4.086,4.541 5.145,10.292 L 12.41,5.903 C 12.41,5.903 10.897,1.816 0,0" />
            </g>
            <g
               transform="translate(330.4656,288.0881)"
               id="g17233"
               style="fill:#022169;fill-opacity:1">
               <path
                  inkscape:connector-curvature="0"
                  id="path17235"
                  style="fill:#022169;fill-opacity:1;fill-rule:evenodd;stroke:none"
                  d="m 0,0 c 0,0 2.421,5.752 6.962,9.687 0,0 1.665,1.21 4.994,-0.606 3.331,-1.816 13.925,-8.173 16.65,-10.746 0,0 2.421,-1.362 0.757,-5.297 -1.666,-3.935 -5.298,-8.173 -6.206,-8.627 -0.908,-0.454 -0.605,-1.514 -5.6,0.908 C 12.563,-12.26 3.212,-6.663 1.967,-5.297 0.749,-3.961 -0.908,-3.935 0,0" />
            </g>
            <g
               transform="translate(347.569,296.7151)"
               id="g17237"
               style="fill:#022169;fill-opacity:1">
               <path
                  inkscape:connector-curvature="0"
                  id="path17239"
                  style="fill:#022169;fill-opacity:1;fill-rule:evenodd;stroke:none"
                  d="M 0,0 1.362,2.119 8.475,-2.875 7.113,-4.843 0,0 Z" />
            </g>
            <g
               transform="translate(324.1337,280.0298)"
               id="g17241">
               <path
                  inkscape:connector-curvature="0"
                  id="path17243"
                  style="fill:#022169;fill-opacity:1;fill-rule:evenodd;stroke:none"
                  d="m 0,0 -0.025,2.458 2.724,0 0,-2.446 2.574,-0.029 0,-2.973 -2.724,0 0,-2.75 c 0,0 2.529,-0.807 2.529,-3.683 0,-2.876 -1.774,-3.708 -1.774,-3.708 l 0.153,-1.211 c 0,0 5.486,0.057 11.351,2.119 0,0 5.997,1.514 8.021,1.06 1.506,-0.338 3.027,-0.757 4.086,-3.179 1.061,-2.421 2.089,-6.582 -1.657,-13.279 0,0 -2.428,-3.597 -2.883,-5.64 -0.432,-1.943 -0.454,-4.692 -0.454,-4.692 l -41.47,-0.454 c 0,0 0,3.783 -1.514,7.719 -1.513,3.936 -4.503,6.527 -4.843,10.746 -0.416,5.149 1.059,6.508 2.724,7.568 1.665,1.059 5.449,2.119 10.444,0.605 4.994,-1.513 7.436,-2.044 11.523,-2.498 0,0 0.282,0.682 0.282,1.136 0,0.454 -2.086,1.322 -1.513,4.389 0.389,2.083 2.421,3.027 2.421,3.027 l 0,2.627 -2.641,0 L -2.578,0 0,0 Z" />
            </g>
            <g
               transform="translate(304.6695,238.8986)"
               id="g17245"
               style="fill:#022169;fill-opacity:1">
               <path
                  inkscape:connector-curvature="0"
                  id="path17247"
                  style="fill:#022169;fill-opacity:1;fill-rule:evenodd;stroke:none"
                  d="m 0,0 41.461,0 0,-3.519 -41.433,0 L 0,0 Z" />
            </g>
            <g
               transform="translate(309.3054,233.8057)"
               id="g17249"
               style="fill:#022169;fill-opacity:1">
               <path
                  inkscape:connector-curvature="0"
                  id="path17251"
                  style="fill:#022169;fill-opacity:1;fill-rule:evenodd;stroke:none"
                  d="m 0,0 9.331,0 c 0,0 -5.938,-12.017 -6.928,-13.006 L -5.796,-7.776 0,0 Z" />
            </g>
            <g
               transform="translate(332.2083,233.8057)"
               id="g17253"
               style="fill:#022169;fill-opacity:1">
               <path
                  inkscape:connector-curvature="0"
                  id="path17255"
                  style="fill:#022169;fill-opacity:1;fill-rule:evenodd;stroke:none"
                  d="m 0,0 9.754,0 c 0,0 3.251,-5.796 4.807,-7.918 L 6.644,-13.006 C 6.644,-13.006 0.989,-1.414 0,0" />
            </g>
            <g
               transform="translate(343.3442,266.3027)"
               id="g17257">
               <path
                  inkscape:connector-curvature="0"
                  id="path17259"
                  style="fill:#b9d9eb;fill-opacity:1;fill-rule:evenodd;stroke:none"
                  d="m 0,0 c 0,0 -4.447,0 -7.97,-1.849 -3.524,-1.848 -6.601,-5.281 -7.108,-9.075 -0.231,-1.733 -0.227,-6.893 0.06,-7.791 0.269,-0.837 0.761,-3.274 3.466,-2.945 3.002,0.365 3.137,1.17 3.337,1.962 0.371,1.471 0.189,1.908 0.247,2.14 0.058,0.231 -2.49,0.067 -2.49,0.067 l 0,2.574 c 0,0 2.271,-0.227 3.028,0.377 0.757,0.607 0.908,2.498 0.908,2.498 l 2.498,0.152 -0.304,-2.65 2.801,0 0.076,-2.571 c 0,0 -2.553,0.026 -3.178,-0.153 -0.531,-0.151 -1.061,-0.832 -1.212,-1.362 -0.15,-0.529 -0.417,-2.384 1.513,-2.497 1.247,-0.073 4.314,0.152 7.795,7.719 3.482,7.568 2.725,6.736 2.725,9.081 C 6.192,-2.267 3.557,0.302 0,0" />
            </g>
            <g
               transform="translate(307.5974,266.3027)"
               id="g17261">
               <path
                  inkscape:connector-curvature="0"
                  id="path17263"
                  style="fill:#b9d9eb;fill-opacity:1;fill-rule:evenodd;stroke:none"
                  d="m 0,0 c 0,0 4.447,0 7.971,-1.849 3.523,-1.848 6.601,-5.281 7.107,-9.075 0.231,-1.733 0.227,-6.893 -0.06,-7.791 -0.269,-0.837 -0.761,-3.274 -3.466,-2.945 -3.002,0.365 -3.137,1.17 -3.337,1.962 -0.371,1.471 -0.189,1.908 -0.247,2.14 -0.057,0.231 2.489,0.067 2.489,0.067 l 0,2.574 c 0,0 -2.27,-0.227 -3.027,0.377 -0.757,0.607 -0.908,2.498 -0.908,2.498 l -2.497,0.152 0.303,-2.65 -2.801,0 -0.075,-2.571 c 0,0 2.582,0.109 3.178,-0.153 0.473,-0.207 0.927,-0.321 1.211,-1.362 0.145,-0.531 0.511,-2.279 -1.513,-2.497 -1.215,-0.131 -4.314,0.152 -7.795,7.719 -3.481,7.568 -2.724,6.736 -2.724,9.081 0,2.056 2.634,4.625 6.191,4.323" />
            </g>
            <g
               transform="translate(301.2281,261.2424)"
               id="g17265">
               <path
                  inkscape:connector-curvature="0"
                  id="path17267"
                  style="fill:#b9d9eb;fill-opacity:1;fill-rule:evenodd;stroke:none"
                  d="m 0,0 c 0.112,2.621 2.458,4.75 5.491,4.75 3.033,0 5.491,-2.126 5.491,-4.75 0,-2.624 -2.458,-4.751 -5.491,-4.751 C 2.458,-4.751 -0.12,-2.805 0,0" />
            </g>
            <g
               transform="translate(338.6936,261.1821)"
               id="g17269">
               <path
                  inkscape:connector-curvature="0"
                  id="path17271"
                  style="fill:#b9d9eb;fill-opacity:1;fill-rule:evenodd;stroke:none"
                  d="M 0,0 C 0.112,2.621 2.458,4.75 5.49,4.75 8.523,4.75 10.982,2.624 10.982,0 10.982,-2.624 8.523,-4.751 5.49,-4.751 2.458,-4.751 -0.121,-2.805 0,0" />
            </g>
         </g>
      </g>
   </g>
</svg>